<?xml version="1.0" encoding="iso-8859-1"?>
<!-- Generator: Adobe Illustrator 19.0.0, SVG Export Plug-In . SVG Version: 6.00 Build 0)  -->
<svg xmlns="http://www.w3.org/2000/svg" xmlns:xlink="http://www.w3.org/1999/xlink" version="1.1" id="Capa_1" x="0px" y="0px" viewBox="0 0 511.999 511.999" style="enable-background:new 0 0 511.999 511.999;" xml:space="preserve" width="512px" height="512px">
<g>
	<g>
		<path d="M287.439,66.043H156.223c-4.334,0-7.848,3.513-7.848,7.848c0,4.335,3.514,7.848,7.848,7.848h131.216    c4.334,0,7.848-3.513,7.848-7.848C295.287,69.556,291.773,66.043,287.439,66.043z" fill="#24548f"/>
	</g>
</g>
<g>
	<g>
		<circle cx="47.21" cy="73.891" r="9.429" fill="#24548f"/>
	</g>
</g>
<g>
	<g>
		<circle cx="83.55" cy="73.891" r="9.429" fill="#24548f"/>
	</g>
</g>
<g>
	<g>
		<circle cx="117.87" cy="73.891" r="9.429" fill="#24548f"/>
	</g>
</g>
<g>
	<g>
		<circle cx="411.59" cy="73.891" r="9.429" fill="#24548f"/>
	</g>
</g>
<g>
	<g>
		<path d="M457.601,374.871c0.123-1.242,0.192-2.492,0.192-3.749V67.356c0-20.76-16.89-37.649-37.649-37.649H37.649    C16.889,29.707,0,46.596,0,67.356v220.139v43.497v40.13c0,20.76,16.889,37.649,37.649,37.649h37.27h45.487h47.482    c4.334,0,7.848-3.513,7.848-7.848c0-4.335-3.514-7.848-7.848-7.848h-36.003c0.434-1.102,0.853-2.21,1.243-3.327l5.094-0.636    c8.958-1.121,15.712-8.773,15.712-17.8v-22.623c0-9.017-6.747-16.668-15.693-17.798h-0.001l-5.08-0.64    c-1.151-3.311-2.498-6.559-4.031-9.723l3.144-4.043c5.545-7.125,4.912-17.313-1.473-23.698l-15.997-15.997    c-6.376-6.376-16.558-7.015-23.681-1.486l-4.064,3.154c-3.131-1.517-6.346-2.853-9.619-3.995l-0.636-5.093    c-1.119-8.959-8.771-15.714-17.799-15.714H36.379c-9.018,0-16.669,6.747-17.797,15.695l-0.64,5.081    c-0.754,0.262-1.499,0.553-2.247,0.835v-158.2h217.067c4.334,0,7.848-3.513,7.848-7.848c0-4.335-3.514-7.848-7.848-7.848H15.696    V67.356c0-12.105,9.848-21.953,21.953-21.953h382.495c12.105,0,21.954,9.849,21.954,21.953v34.015H271.096    c-4.334,0-7.848,3.513-7.848,7.848c0,4.335,3.514,7.848,7.848,7.848h27.297c-3.908,2.43-7.824,5.24-11.667,8.509    c-8.466,7.205-15.959,16.251-22.278,26.888c-0.003,0.005-0.007,0.009-0.009,0.013c-0.011,0.017-0.021,0.035-0.031,0.053    c-0.021,0.036-0.044,0.07-0.065,0.106c-0.005,0.008-0.008,0.017-0.013,0.025c-5.875,9.457-10,19.758-12.256,30.626    c-1.533,7.389-2.164,14.91-1.9,22.439c-7.6,3.239-12.942,10.783-12.942,19.552v39.821c0,11.713,9.53,21.243,21.244,21.243h10.2    c4.812,18.967,16.316,35.282,31.831,46.311v12.946c0,6.382-3.419,12.234-9.044,16.339c-0.266,0.159-0.525,0.332-0.774,0.524    c-3.269,2.219-7.203,3.882-11.619,4.746l-36.232,7.094c-33.585,6.577-57.041,31.745-57.041,61.204v38.938    c0,4.335,3.514,7.848,7.848,7.848h310.506c4.334,0,7.848-3.513,7.848-7.848v-38.938C512,406.827,489.766,382.222,457.601,374.871z     M15.696,292.295c3.735-1.775,7.601-3.228,11.539-4.342c3.032-0.856,5.257-3.445,5.651-6.57l1.269-10.067    c0.141-1.119,1.098-1.962,2.225-1.962h22.623c1.128,0,2.085,0.844,2.225,1.964l1.26,10.082c0.39,3.127,2.612,5.716,5.643,6.577    c5.521,1.568,10.883,3.795,15.939,6.62c2.749,1.536,6.152,1.279,8.639-0.652l8.037-6.238c0.891-0.691,2.163-0.611,2.96,0.185    l15.997,15.998c0.798,0.797,0.877,2.07,0.183,2.961l-6.237,8.018c-1.936,2.488-2.194,5.894-0.656,8.647    c2.838,5.079,5.075,10.472,6.647,16.031c0.857,3.032,3.444,5.256,6.57,5.651l10.067,1.269c1.119,0.141,1.962,1.097,1.962,2.225    v22.623c0,1.128-0.845,2.085-1.963,2.225l-10.082,1.259c-3.126,0.39-5.716,2.613-6.577,5.644    c-1.23,4.334-2.867,8.569-4.879,12.635H94.122c6.8-9.532,10.589-21.057,10.589-33.124c0-31.469-25.601-57.07-57.07-57.07    c-11.489,0-22.609,3.512-31.945,9.814V292.295z M15.696,333.673c7.831-9.496,19.596-15.097,31.945-15.097    c22.814,0,41.375,18.561,41.375,41.375c0,13.1-6.169,25.315-16.601,33.124H37.649c-12.105,0-21.953-9.849-21.953-21.954V333.673z     M442.098,117.067v59.107c-7.258-18.356-16.993-33.509-29.078-45.198c-5.566-5.384-11.315-10.011-17.224-13.909H442.098z     M442.098,292.807v78.313c0,0.22-0.021,0.438-0.027,0.658l-23.343-4.57c-4.415-0.864-8.349-2.527-11.619-4.745    c-0.25-0.193-0.51-0.368-0.777-0.527c-5.624-4.106-9.042-9.956-9.042-16.338v-15.03c5.139-3.994,9.786-8.588,13.838-13.68    C425.912,316.59,438.322,306.477,442.098,292.807z M423.535,295.122c1.084-2.856,2.02-5.782,2.781-8.78h1.106    C426.981,289.661,425.598,292.683,423.535,295.122z M428.809,270.647v-4.292V219.73h7.708c3.059,0,5.548,2.488,5.548,5.548v39.821    c0,3.059-2.489,5.548-5.548,5.548H428.809z M296.898,137.529c24.581-20.917,53.479-19.861,53.743-19.852    c18.261,0.943,35.578,9.214,51.468,24.583c14.159,13.696,24.73,33.207,31.421,57.992c0.41,1.517,1.241,2.805,2.329,3.783h-7.385    c-0.971-3.232-3.966-5.587-7.514-5.587c-1.447,0-2.798,0.399-3.962,1.081c-0.105,0.057-0.218,0.123-0.344,0.205    c-8.352,5.481-28.247,8.846-38.833,8.846c-25.934,0-50.914-9.265-72.121-26.183l-24.751-26.68    C285.686,148.63,291.03,142.523,296.898,137.529z M266.184,266.354v4.292h-7.708c-3.059,0-5.548-2.488-5.548-5.548v-39.821    c0-3.059,2.489-5.548,5.548-5.548h7.708V266.354z M272.219,198.666c-1.006,0.238-1.935,0.668-2.749,1.252    c-1.206,0.522-2.422,1.025-3.657,1.489c0.065-5.013,0.609-10.008,1.631-14.931c1.092-5.262,2.732-10.355,4.856-15.255    c5.054,6.194,10.447,11.9,16.136,17.084c-5.767,4.64-10.685,7.497-12.929,8.703C274.428,197.588,273.328,198.135,272.219,198.666z     M281.88,266.354v-54.473v-0.502c0.352-0.183,0.708-0.359,1.058-0.547c3.001-1.612,10.011-5.697,17.869-12.405    c22.883,16.738,49.43,25.847,77.016,25.847c8.733,0,23.359-1.887,35.291-5.857v47.937c0,12.801-3.698,24.749-10.063,34.856    h-47.954c-4.334,0-7.848,3.513-7.848,7.848c0,4.335,3.514,7.848,7.848,7.848h34.187c-11.358,9.405-25.923,15.065-41.787,15.065    C311.316,331.971,281.88,302.536,281.88,266.354z M390.109,368.182c-12.098,8.214-26.436,12.676-41.209,12.676    c-14.774,0-29.111-4.462-41.209-12.676c5.397-6.339,8.514-14.167,8.514-22.583v-4.203c9.637,4.034,20.207,6.271,31.292,6.271    c12.173,0,23.72-2.707,34.098-7.522v5.454C381.595,354.015,384.712,361.843,390.109,368.182z M453.216,466.596V453.38    c0-4.335-3.514-7.848-7.848-7.848s-7.848,3.513-7.848,7.848v13.216H260.339V453.38c0-4.335-3.514-7.848-7.848-7.848    c-4.334,0-7.848,3.513-7.848,7.848v13.216h-43.149v-31.09c0-21.852,18.242-40.686,44.361-45.8l36.232-7.094    c4.595-0.9,8.868-2.396,12.733-4.374c15.484,11.837,34.465,18.315,54.078,18.315c19.614,0,38.595-6.479,54.079-18.315    c3.866,1.978,8.139,3.474,12.734,4.374l36.231,7.094c26.119,5.114,44.361,23.948,44.361,45.8v31.09H453.216z" fill="#24548f"/>
	</g>
</g>
<g>
	<g>
		<path d="M371.665,276.812c-2.928-2.93-7.677-2.929-10.606-0.001c-7.726,7.728-20.295,7.727-28.021,0    c-2.928-2.928-7.677-2.929-10.606,0.001c-2.929,2.928-2.929,7.677,0,10.606c6.787,6.786,15.702,10.18,24.617,10.18    s17.83-3.394,24.616-10.18C374.594,284.49,374.594,279.741,371.665,276.812z" fill="#24548f"/>
	</g>
</g>
<g>
	<g>
		<circle cx="319.36" cy="234.959" r="8.143" fill="#24548f"/>
	</g>
</g>
<g>
	<g>
		<circle cx="374.73" cy="234.959" r="8.143" fill="#24548f"/>
	</g>
</g>
<g>
	<g>
		<path d="M102.999,215.231l-19.893-64.893c-0.568-1.772-1.861-3.138-3.883-4.096c-2.021-0.957-4.345-1.437-6.968-1.437    c-2.625,0-4.947,0.479-6.968,1.437c-2.021,0.957-3.316,2.324-3.883,4.096l-19.787,64.893c-0.143,0.568-0.214,0.957-0.214,1.17    c0,1.845,1.153,3.442,3.458,4.787c2.304,1.348,4.697,2.021,7.181,2.021c3.049,0,4.857-1.027,5.426-3.085l3.616-13.297h22.447    l3.617,13.297c0.567,2.058,2.376,3.085,5.426,3.085c2.481,0,4.875-0.673,7.181-2.021c2.303-1.346,3.457-2.942,3.457-4.787    C103.212,216.188,103.14,215.799,102.999,215.231z M64.489,194.062l7.766-28.512l7.766,28.512H64.489z" fill="#24548f"/>
	</g>
</g>
<g>
	<g>
		<path d="M155.817,151.35c-4.573-3.938-10.656-5.906-18.243-5.906h-22.022c-1.844,0-3.334,0.497-4.468,1.49    c-1.135,0.993-1.702,2.163-1.702,3.51v67.66c0,1.632,0.814,2.891,2.446,3.777c1.631,0.888,3.581,1.329,5.851,1.329    c2.27,0,4.219-0.441,5.851-1.329c1.631-0.886,2.447-2.145,2.447-3.777v-22.978h10.531c7.873,0,14.203-2.004,18.99-6.01    c4.787-4.006,7.181-10.23,7.181-18.671v-0.531C162.679,161.475,160.392,155.286,155.817,151.35z M146.084,171.721    c0,7.093-3.191,10.638-9.575,10.638h-10.531v-22.447h10.531c6.383,0,9.575,3.547,9.575,10.638V171.721z" fill="#24548f"/>
	</g>
</g>
<g>
	<g>
		<path d="M184.061,146.72c-1.632-0.851-3.582-1.276-5.851-1.276c-2.271,0-4.22,0.425-5.851,1.276    c-1.632,0.851-2.446,2.093-2.446,3.724v67.66c0,1.632,0.814,2.891,2.446,3.777c1.631,0.888,3.581,1.329,5.851,1.329    c2.27,0,4.219-0.441,5.851-1.329c1.631-0.886,2.447-2.145,2.447-3.777v-67.66C186.508,148.813,185.692,147.572,184.061,146.72z" fill="#24548f"/>
	</g>
</g>
<g>
</g>
<g>
</g>
<g>
</g>
<g>
</g>
<g>
</g>
<g>
</g>
<g>
</g>
<g>
</g>
<g>
</g>
<g>
</g>
<g>
</g>
<g>
</g>
<g>
</g>
<g>
</g>
<g>
</g>
</svg>
